<mxfile host="app.diagrams.net" modified="2025-01-12T14:12:50.999Z" agent="Mozilla/5.0 (Windows NT 10.0; Win64; x64) AppleWebKit/537.36 (KHTML, like Gecko) Chrome/131.0.0.0 Safari/537.36" etag="zPzDQKa7xoaSzTjlD5X6" version="24.2.8" type="device">
  <diagram name="Page-1" id="kGFZ8DEzGSvj911HBqV8">
    <mxGraphModel dx="875" dy="521" grid="1" gridSize="10" guides="1" tooltips="1" connect="1" arrows="1" fold="1" page="1" pageScale="1" pageWidth="1169" pageHeight="827" math="0" shadow="0">
      <root>
        <mxCell id="0" />
        <mxCell id="1" parent="0" />
        <mxCell id="ZalriifZYH_jLImGx8Wc-2" value="" style="strokeWidth=2;html=1;shape=mxgraph.flowchart.database;whiteSpace=wrap;rounded=0;strokeColor=#FAF5F0;align=center;verticalAlign=middle;fontFamily=Sarabun;fontSource=https%3A%2F%2Ffonts.googleapis.com%2Fcss%3Ffamily%3DSarabun;fontSize=12;fontColor=#220607;labelBackgroundColor=none;fillColor=#006664;" parent="1" vertex="1">
          <mxGeometry x="135" y="125" width="60" height="60" as="geometry" />
        </mxCell>
        <mxCell id="ZalriifZYH_jLImGx8Wc-3" value="Menu Categories" style="text;html=1;align=center;verticalAlign=middle;resizable=0;points=[];autosize=1;strokeColor=none;fillColor=none;fontFamily=Sarabun;fontSource=https%3A%2F%2Ffonts.googleapis.com%2Fcss%3Ffamily%3DSarabun;fontSize=12;fontColor=#220607;labelBackgroundColor=none;" parent="1" vertex="1">
          <mxGeometry x="110" y="185" width="110" height="30" as="geometry" />
        </mxCell>
        <mxCell id="ZalriifZYH_jLImGx8Wc-4" value="" style="strokeWidth=2;html=1;shape=mxgraph.flowchart.database;whiteSpace=wrap;rounded=0;strokeColor=#FAF5F0;align=center;verticalAlign=middle;fontFamily=Sarabun;fontSource=https%3A%2F%2Ffonts.googleapis.com%2Fcss%3Ffamily%3DSarabun;fontSize=12;fontColor=#220607;labelBackgroundColor=none;fillColor=#006664;" parent="1" vertex="1">
          <mxGeometry x="135" y="220" width="60" height="60" as="geometry" />
        </mxCell>
        <mxCell id="ZalriifZYH_jLImGx8Wc-5" value="Menu Items" style="text;html=1;align=center;verticalAlign=middle;resizable=0;points=[];autosize=1;strokeColor=none;fillColor=none;fontFamily=Sarabun;fontSource=https%3A%2F%2Ffonts.googleapis.com%2Fcss%3Ffamily%3DSarabun;fontSize=12;fontColor=#220607;labelBackgroundColor=none;" parent="1" vertex="1">
          <mxGeometry x="125" y="280" width="80" height="30" as="geometry" />
        </mxCell>
        <mxCell id="ZalriifZYH_jLImGx8Wc-6" value="" style="strokeWidth=2;html=1;shape=mxgraph.flowchart.database;whiteSpace=wrap;rounded=0;strokeColor=#FAF5F0;align=center;verticalAlign=middle;fontFamily=Sarabun;fontSource=https%3A%2F%2Ffonts.googleapis.com%2Fcss%3Ffamily%3DSarabun;fontSize=12;fontColor=#220607;labelBackgroundColor=none;fillColor=#006664;" parent="1" vertex="1">
          <mxGeometry x="135" y="315" width="60" height="60" as="geometry" />
        </mxCell>
        <mxCell id="ZalriifZYH_jLImGx8Wc-7" value="Stalls" style="text;html=1;align=center;verticalAlign=middle;resizable=0;points=[];autosize=1;strokeColor=none;fillColor=none;fontFamily=Sarabun;fontSource=https%3A%2F%2Ffonts.googleapis.com%2Fcss%3Ffamily%3DSarabun;fontSize=12;fontColor=#220607;labelBackgroundColor=none;" parent="1" vertex="1">
          <mxGeometry x="140" y="375" width="50" height="30" as="geometry" />
        </mxCell>
        <mxCell id="ZalriifZYH_jLImGx8Wc-8" value="" style="strokeWidth=2;html=1;shape=mxgraph.flowchart.annotation_2;align=left;labelPosition=right;pointerEvents=1;rounded=0;strokeColor=#220607;verticalAlign=middle;fontFamily=Sarabun;fontSource=https%3A%2F%2Ffonts.googleapis.com%2Fcss%3Ffamily%3DSarabun;fontSize=12;fontColor=#220607;labelBackgroundColor=none;fillColor=#FAF5F0;flipH=1;" parent="1" vertex="1">
          <mxGeometry x="210" y="150" width="30" height="100" as="geometry" />
        </mxCell>
        <mxCell id="Of5N_P5urWTNgMw1r_7d-12" style="edgeStyle=orthogonalEdgeStyle;rounded=0;orthogonalLoop=1;jettySize=auto;html=1;endArrow=none;endFill=0;dashed=1;strokeWidth=2;entryX=0.5;entryY=1;entryDx=0;entryDy=0;" parent="1" source="ZalriifZYH_jLImGx8Wc-11" target="Of5N_P5urWTNgMw1r_7d-13" edge="1">
          <mxGeometry relative="1" as="geometry">
            <mxPoint x="470" y="120" as="targetPoint" />
            <Array as="points">
              <mxPoint x="510" y="160" />
              <mxPoint x="600" y="160" />
            </Array>
          </mxGeometry>
        </mxCell>
        <mxCell id="Of5N_P5urWTNgMw1r_7d-16" style="edgeStyle=orthogonalEdgeStyle;rounded=0;orthogonalLoop=1;jettySize=auto;html=1;entryX=0.75;entryY=0;entryDx=0;entryDy=0;exitX=1;exitY=0.5;exitDx=0;exitDy=0;strokeWidth=2;endArrow=none;endFill=0;" parent="1" source="ZalriifZYH_jLImGx8Wc-11" target="Of5N_P5urWTNgMw1r_7d-14" edge="1">
          <mxGeometry relative="1" as="geometry">
            <mxPoint x="580" y="220" as="targetPoint" />
          </mxGeometry>
        </mxCell>
        <mxCell id="ZalriifZYH_jLImGx8Wc-11" value="A kNN model to match similar menu items" style="rounded=0;whiteSpace=wrap;html=1;fontFamily=Sarabun;fontSource=https%3A%2F%2Ffonts.googleapis.com%2Fcss%3Ffamily%3DSarabun;labelBackgroundColor=none;fillColor=#FAF5F0;strokeColor=#220607;fontColor=#220607;strokeWidth=2;fontStyle=1" parent="1" vertex="1">
          <mxGeometry x="450" y="170" width="120" height="60" as="geometry" />
        </mxCell>
        <mxCell id="Of5N_P5urWTNgMw1r_7d-3" value="Populate&lt;div&gt;Tags&lt;/div&gt;" style="rounded=0;whiteSpace=wrap;html=1;fontFamily=Sarabun;fontSource=https%3A%2F%2Ffonts.googleapis.com%2Fcss%3Ffamily%3DSarabun;labelBackgroundColor=none;fillColor=#FAF5F0;strokeColor=#220607;fontColor=#220607;strokeWidth=2;fontStyle=1" parent="1" vertex="1">
          <mxGeometry x="240" y="180" width="60" height="40" as="geometry" />
        </mxCell>
        <mxCell id="Of5N_P5urWTNgMw1r_7d-7" style="edgeStyle=orthogonalEdgeStyle;rounded=0;orthogonalLoop=1;jettySize=auto;html=1;exitX=0.5;exitY=0;exitDx=0;exitDy=0;exitPerimeter=0;entryX=0;entryY=0.5;entryDx=0;entryDy=0;endArrow=classic;endFill=1;strokeWidth=2;" parent="1" source="Of5N_P5urWTNgMw1r_7d-4" target="ZalriifZYH_jLImGx8Wc-11" edge="1">
          <mxGeometry relative="1" as="geometry">
            <Array as="points">
              <mxPoint x="340" y="200" />
              <mxPoint x="340" y="200" />
            </Array>
          </mxGeometry>
        </mxCell>
        <mxCell id="Of5N_P5urWTNgMw1r_7d-4" value="" style="strokeWidth=2;html=1;shape=stencil(rVTLboMwEPwaXyuDEyk5Rm56zKWHnB2yLVbCGhk3af++xhtUEI/wqISEdgbPeGeNmZBFqnJgMUeVAROvLI53iMYppw16OPaAf6VEbTdU3qmMOKdaFTkkjsCbslqdrkBM4ay5wF2f3UNCYwpWu5IVe8Z3/pvyETIxiF7E2xYNpsZ7MaXRr+XfJMZf1mTz86ipyr1DBg5sA/3r8EAAi99mO0XjnN5nODU7qnyfOR2nO0XznPaLnUZOabHR2CH1GAnpkb5jKeRJJZdPa77w3Lm9XJVHvkVUdGZuUNs3510RdbdeSVw11iTW/61Q/exTJFZ8ikYIuJVTQHvCFfLDWBhIne6bAcdJY2k2s9ouznRYojuPp62FZa1cAkq3ewB+AQ==);align=left;labelPosition=right;pointerEvents=1;rounded=0;strokeColor=#220607;verticalAlign=middle;fontFamily=Sarabun;fontSource=https%3A%2F%2Ffonts.googleapis.com%2Fcss%3Ffamily%3DSarabun;fontSize=12;fontColor=#220607;labelBackgroundColor=none;fillColor=#FAF5F0;flipH=1;" parent="1" vertex="1">
          <mxGeometry x="300" y="200" width="30" height="140" as="geometry" />
        </mxCell>
        <mxCell id="Of5N_P5urWTNgMw1r_7d-15" style="edgeStyle=orthogonalEdgeStyle;rounded=0;orthogonalLoop=1;jettySize=auto;html=1;exitX=1;exitY=0.5;exitDx=0;exitDy=0;entryX=0;entryY=0.5;entryDx=0;entryDy=0;endArrow=classic;endFill=1;strokeWidth=2;" parent="1" source="Of5N_P5urWTNgMw1r_7d-5" target="Of5N_P5urWTNgMw1r_7d-14" edge="1">
          <mxGeometry relative="1" as="geometry" />
        </mxCell>
        <mxCell id="Of5N_P5urWTNgMw1r_7d-5" value="Create Entries of Stall-&amp;gt;Item" style="rounded=0;whiteSpace=wrap;html=1;fontFamily=Sarabun;fontSource=https%3A%2F%2Ffonts.googleapis.com%2Fcss%3Ffamily%3DSarabun;labelBackgroundColor=none;fillColor=#FAF5F0;strokeColor=#220607;fontColor=#220607;strokeWidth=2;fontStyle=1" parent="1" vertex="1">
          <mxGeometry x="330" y="250" width="90" height="40" as="geometry" />
        </mxCell>
        <mxCell id="Of5N_P5urWTNgMw1r_7d-13" value="&lt;span style=&quot;font-weight: 400;&quot;&gt;There are 3 items that contribute to recommendation:&lt;/span&gt;&lt;div style=&quot;line-height: 100%;&quot;&gt;&lt;span style=&quot;font-weight: 400;&quot;&gt;- Have matching tags&lt;/span&gt;&lt;/div&gt;&lt;div style=&quot;line-height: 100%;&quot;&gt;&lt;span style=&quot;font-weight: 400;&quot;&gt;- Have similar vectors of dish name&lt;/span&gt;&lt;/div&gt;&lt;div style=&quot;line-height: 100%;&quot;&gt;&lt;span style=&quot;font-weight: 400;&quot;&gt;- Have similar vectors of ingredients&lt;/span&gt;&lt;/div&gt;" style="rounded=0;whiteSpace=wrap;html=1;fontFamily=Sarabun;fontSource=https%3A%2F%2Ffonts.googleapis.com%2Fcss%3Ffamily%3DSarabun;labelBackgroundColor=none;fillColor=#FAF5F0;strokeColor=#220607;fontColor=#220607;strokeWidth=2;fontStyle=1;dashed=1;align=left;spacingLeft=8;spacingRight=8;" parent="1" vertex="1">
          <mxGeometry x="440" y="80" width="320" height="70" as="geometry" />
        </mxCell>
        <mxCell id="Of5N_P5urWTNgMw1r_7d-18" style="edgeStyle=orthogonalEdgeStyle;rounded=0;orthogonalLoop=1;jettySize=auto;html=1;strokeWidth=2;entryX=0;entryY=0.5;entryDx=0;entryDy=0;" parent="1" source="Of5N_P5urWTNgMw1r_7d-14" target="Of5N_P5urWTNgMw1r_7d-19" edge="1">
          <mxGeometry relative="1" as="geometry">
            <mxPoint x="680" y="270" as="targetPoint" />
          </mxGeometry>
        </mxCell>
        <mxCell id="Of5N_P5urWTNgMw1r_7d-14" value="Dataset of possible recommendations from all data" style="rounded=0;whiteSpace=wrap;html=1;fontFamily=Sarabun;fontSource=https%3A%2F%2Ffonts.googleapis.com%2Fcss%3Ffamily%3DSarabun;labelBackgroundColor=none;fillColor=#FAF5F0;strokeColor=#220607;fontColor=#220607;strokeWidth=2;fontStyle=1" parent="1" vertex="1">
          <mxGeometry x="480" y="240" width="120" height="60" as="geometry" />
        </mxCell>
        <mxCell id="Of5N_P5urWTNgMw1r_7d-17" value="Similar menu items" style="text;html=1;align=center;verticalAlign=middle;resizable=0;points=[];autosize=1;strokeColor=none;fillColor=none;fontFamily=Sarabun;fontSource=https%3A%2F%2Ffonts.googleapis.com%2Fcss%3Ffamily%3DSarabun;" parent="1" vertex="1">
          <mxGeometry x="590" y="200" width="120" height="30" as="geometry" />
        </mxCell>
        <mxCell id="Of5N_P5urWTNgMw1r_7d-20" value="Recommendation Engine" style="swimlane;whiteSpace=wrap;html=1;fillColor=#FAF5F0;fontFamily=Sarabun;fontSource=https%3A%2F%2Ffonts.googleapis.com%2Fcss%3Ffamily%3DSarabun;" parent="1" vertex="1">
          <mxGeometry x="430" y="50" width="340" height="260" as="geometry" />
        </mxCell>
        <mxCell id="Of5N_P5urWTNgMw1r_7d-19" value="List of predicted recommendations" style="rounded=0;whiteSpace=wrap;html=1;fontFamily=Sarabun;fontSource=https%3A%2F%2Ffonts.googleapis.com%2Fcss%3Ffamily%3DSarabun;labelBackgroundColor=none;fillColor=#FAF5F0;strokeColor=#220607;fontColor=#220607;strokeWidth=2;fontStyle=1" parent="Of5N_P5urWTNgMw1r_7d-20" vertex="1">
          <mxGeometry x="210" y="190" width="120" height="60" as="geometry" />
        </mxCell>
        <mxCell id="Of5N_P5urWTNgMw1r_7d-21" value="" style="shape=actor;whiteSpace=wrap;html=1;strokeColor=none;fillColor=#006664;" parent="1" vertex="1">
          <mxGeometry x="145" y="500" width="40" height="60" as="geometry" />
        </mxCell>
        <mxCell id="Of5N_P5urWTNgMw1r_7d-26" value="&lt;span&gt;Recently Seen Items&lt;/span&gt;" style="whiteSpace=wrap;html=1;rounded=0;arcSize=50;align=center;verticalAlign=middle;strokeWidth=2;autosize=1;spacing=4;treeFolding=1;treeMoving=1;newEdgeStyle={&quot;edgeStyle&quot;:&quot;entityRelationEdgeStyle&quot;,&quot;startArrow&quot;:&quot;none&quot;,&quot;endArrow&quot;:&quot;none&quot;,&quot;segment&quot;:10,&quot;curved&quot;:1,&quot;sourcePerimeterSpacing&quot;:0,&quot;targetPerimeterSpacing&quot;:0};fillColor=#FAF5F0;fontFamily=Sarabun;fontSource=https%3A%2F%2Ffonts.googleapis.com%2Fcss%3Ffamily%3DSarabun;fontStyle=1" parent="1" vertex="1">
          <mxGeometry x="220" y="440" width="150" height="30" as="geometry" />
        </mxCell>
        <mxCell id="Of5N_P5urWTNgMw1r_7d-27" value="" style="edgeStyle=entityRelationEdgeStyle;startArrow=none;endArrow=none;segment=10;curved=1;sourcePerimeterSpacing=0;targetPerimeterSpacing=0;rounded=0;strokeWidth=2;" parent="1" edge="1">
          <mxGeometry relative="1" as="geometry">
            <mxPoint x="190" y="524" as="sourcePoint" />
            <mxPoint x="220" y="459" as="targetPoint" />
          </mxGeometry>
        </mxCell>
        <mxCell id="Of5N_P5urWTNgMw1r_7d-34" value="&lt;span&gt;Reviewed Items&lt;/span&gt;" style="whiteSpace=wrap;html=1;rounded=0;arcSize=50;align=center;verticalAlign=middle;strokeWidth=2;autosize=1;spacing=4;treeFolding=1;treeMoving=1;newEdgeStyle={&quot;edgeStyle&quot;:&quot;entityRelationEdgeStyle&quot;,&quot;startArrow&quot;:&quot;none&quot;,&quot;endArrow&quot;:&quot;none&quot;,&quot;segment&quot;:10,&quot;curved&quot;:1,&quot;sourcePerimeterSpacing&quot;:0,&quot;targetPerimeterSpacing&quot;:0};fillColor=#FAF5F0;fontFamily=Sarabun;fontSource=https%3A%2F%2Ffonts.googleapis.com%2Fcss%3Ffamily%3DSarabun;fontStyle=1" parent="1" vertex="1">
          <mxGeometry x="240" y="480" width="130" height="30" as="geometry" />
        </mxCell>
        <mxCell id="Of5N_P5urWTNgMw1r_7d-35" value="" style="edgeStyle=entityRelationEdgeStyle;startArrow=none;endArrow=none;segment=10;curved=1;sourcePerimeterSpacing=0;targetPerimeterSpacing=0;rounded=0;strokeWidth=2;" parent="1" target="Of5N_P5urWTNgMw1r_7d-34" edge="1">
          <mxGeometry relative="1" as="geometry">
            <mxPoint x="190" y="530" as="sourcePoint" />
          </mxGeometry>
        </mxCell>
        <mxCell id="Of5N_P5urWTNgMw1r_7d-37" value="&lt;span&gt;Liked Items&lt;/span&gt;" style="whiteSpace=wrap;html=1;rounded=0;arcSize=50;align=center;verticalAlign=middle;strokeWidth=2;autosize=1;spacing=4;treeFolding=1;treeMoving=1;newEdgeStyle={&quot;edgeStyle&quot;:&quot;entityRelationEdgeStyle&quot;,&quot;startArrow&quot;:&quot;none&quot;,&quot;endArrow&quot;:&quot;none&quot;,&quot;segment&quot;:10,&quot;curved&quot;:1,&quot;sourcePerimeterSpacing&quot;:0,&quot;targetPerimeterSpacing&quot;:0};fillColor=#FAF5F0;fontFamily=Sarabun;fontSource=https%3A%2F%2Ffonts.googleapis.com%2Fcss%3Ffamily%3DSarabun;fontStyle=1" parent="1" vertex="1">
          <mxGeometry x="270" y="520" width="100" height="30" as="geometry" />
        </mxCell>
        <mxCell id="Of5N_P5urWTNgMw1r_7d-38" value="" style="edgeStyle=entityRelationEdgeStyle;startArrow=none;endArrow=none;segment=10;curved=1;sourcePerimeterSpacing=0;targetPerimeterSpacing=0;rounded=0;strokeWidth=2;" parent="1" target="Of5N_P5urWTNgMw1r_7d-37" edge="1">
          <mxGeometry relative="1" as="geometry">
            <mxPoint x="190" y="535" as="sourcePoint" />
          </mxGeometry>
        </mxCell>
        <mxCell id="Of5N_P5urWTNgMw1r_7d-53" style="edgeStyle=orthogonalEdgeStyle;rounded=0;orthogonalLoop=1;jettySize=auto;html=1;startArrow=none;endArrow=none;segment=10;sourcePerimeterSpacing=0;targetPerimeterSpacing=0;exitX=1;exitY=0.5;exitDx=0;exitDy=0;entryX=0.75;entryY=1;entryDx=0;entryDy=0;strokeWidth=2;" parent="1" source="Of5N_P5urWTNgMw1r_7d-39" target="Of5N_P5urWTNgMw1r_7d-47" edge="1">
          <mxGeometry relative="1" as="geometry" />
        </mxCell>
        <mxCell id="Of5N_P5urWTNgMw1r_7d-39" value="&lt;span&gt;Dietary Restrictions&lt;/span&gt;" style="whiteSpace=wrap;html=1;rounded=0;arcSize=50;align=center;verticalAlign=middle;strokeWidth=2;autosize=1;spacing=4;treeFolding=1;treeMoving=1;newEdgeStyle={&quot;edgeStyle&quot;:&quot;entityRelationEdgeStyle&quot;,&quot;startArrow&quot;:&quot;none&quot;,&quot;endArrow&quot;:&quot;none&quot;,&quot;segment&quot;:10,&quot;curved&quot;:1,&quot;sourcePerimeterSpacing&quot;:0,&quot;targetPerimeterSpacing&quot;:0};fillColor=#FAF5F0;fontFamily=Sarabun;fontSource=https%3A%2F%2Ffonts.googleapis.com%2Fcss%3Ffamily%3DSarabun;fontStyle=1" parent="1" vertex="1">
          <mxGeometry x="220" y="610" width="150" height="30" as="geometry" />
        </mxCell>
        <mxCell id="Of5N_P5urWTNgMw1r_7d-40" value="" style="edgeStyle=entityRelationEdgeStyle;startArrow=none;endArrow=none;segment=10;curved=1;sourcePerimeterSpacing=0;targetPerimeterSpacing=0;rounded=0;strokeWidth=2;" parent="1" target="Of5N_P5urWTNgMw1r_7d-39" edge="1">
          <mxGeometry relative="1" as="geometry">
            <mxPoint x="190" y="554" as="sourcePoint" />
          </mxGeometry>
        </mxCell>
        <mxCell id="Of5N_P5urWTNgMw1r_7d-50" style="edgeStyle=orthogonalEdgeStyle;rounded=0;orthogonalLoop=1;jettySize=auto;html=1;startArrow=none;endArrow=none;segment=10;sourcePerimeterSpacing=0;targetPerimeterSpacing=0;exitX=1;exitY=0.5;exitDx=0;exitDy=0;entryX=0.25;entryY=1;entryDx=0;entryDy=0;strokeWidth=2;dashed=1;" parent="1" source="Of5N_P5urWTNgMw1r_7d-42" target="Of5N_P5urWTNgMw1r_7d-47" edge="1">
          <mxGeometry relative="1" as="geometry">
            <Array as="points">
              <mxPoint x="610" y="585" />
            </Array>
          </mxGeometry>
        </mxCell>
        <mxCell id="Of5N_P5urWTNgMw1r_7d-42" value="&lt;span&gt;Disliked Items&lt;/span&gt;" style="whiteSpace=wrap;html=1;rounded=0;arcSize=50;align=center;verticalAlign=middle;strokeWidth=2;autosize=1;spacing=4;treeFolding=1;treeMoving=1;newEdgeStyle={&quot;edgeStyle&quot;:&quot;entityRelationEdgeStyle&quot;,&quot;startArrow&quot;:&quot;none&quot;,&quot;endArrow&quot;:&quot;none&quot;,&quot;segment&quot;:10,&quot;curved&quot;:1,&quot;sourcePerimeterSpacing&quot;:0,&quot;targetPerimeterSpacing&quot;:0};fillColor=#FAF5F0;fontFamily=Sarabun;fontSource=https%3A%2F%2Ffonts.googleapis.com%2Fcss%3Ffamily%3DSarabun;fontStyle=1" parent="1" vertex="1">
          <mxGeometry x="250" y="570" width="120" height="30" as="geometry" />
        </mxCell>
        <mxCell id="Of5N_P5urWTNgMw1r_7d-43" value="" style="edgeStyle=entityRelationEdgeStyle;startArrow=none;endArrow=none;segment=10;curved=1;sourcePerimeterSpacing=0;targetPerimeterSpacing=0;rounded=0;strokeWidth=2;" parent="1" target="Of5N_P5urWTNgMw1r_7d-42" edge="1">
          <mxGeometry relative="1" as="geometry">
            <mxPoint x="190" y="550" as="sourcePoint" />
          </mxGeometry>
        </mxCell>
        <mxCell id="Of5N_P5urWTNgMw1r_7d-44" value="User&lt;div&gt;Profile&lt;/div&gt;" style="text;html=1;align=center;verticalAlign=middle;resizable=0;points=[];autosize=1;strokeColor=none;fillColor=none;fontFamily=Sarabun;fontSource=https%3A%2F%2Ffonts.googleapis.com%2Fcss%3Ffamily%3DSarabun;fontSize=12;fontColor=#220607;labelBackgroundColor=none;" parent="1" vertex="1">
          <mxGeometry x="135" y="565" width="60" height="40" as="geometry" />
        </mxCell>
        <mxCell id="Of5N_P5urWTNgMw1r_7d-45" value="" style="strokeWidth=2;html=1;shape=mxgraph.flowchart.annotation_2;align=left;labelPosition=right;pointerEvents=1;rounded=0;strokeColor=#220607;verticalAlign=middle;fontFamily=Sarabun;fontSource=https%3A%2F%2Ffonts.googleapis.com%2Fcss%3Ffamily%3DSarabun;fontSize=12;fontColor=#220607;labelBackgroundColor=none;fillColor=#FAF5F0;flipH=1;" parent="1" vertex="1">
          <mxGeometry x="380" y="455" width="30" height="80" as="geometry" />
        </mxCell>
        <mxCell id="Of5N_P5urWTNgMw1r_7d-48" style="edgeStyle=orthogonalEdgeStyle;rounded=0;orthogonalLoop=1;jettySize=auto;html=1;entryX=0;entryY=0.5;entryDx=0;entryDy=0;strokeWidth=2;" parent="1" source="Of5N_P5urWTNgMw1r_7d-46" target="Of5N_P5urWTNgMw1r_7d-47" edge="1">
          <mxGeometry relative="1" as="geometry" />
        </mxCell>
        <mxCell id="Of5N_P5urWTNgMw1r_7d-46" value="Recommendation&lt;div style=&quot;font-size: 14px;&quot;&gt;Engine&lt;/div&gt;" style="rounded=0;whiteSpace=wrap;html=1;fontFamily=Sarabun;fontSource=https%3A%2F%2Ffonts.googleapis.com%2Fcss%3Ffamily%3DSarabun;labelBackgroundColor=none;fillColor=#FAF5F0;strokeColor=#220607;fontColor=#220607;strokeWidth=2;fontStyle=1;fontSize=14;" parent="1" vertex="1">
          <mxGeometry x="410" y="460" width="130" height="70" as="geometry" />
        </mxCell>
        <mxCell id="Of5N_P5urWTNgMw1r_7d-47" value="List of predicted recommendations" style="rounded=0;whiteSpace=wrap;html=1;fontFamily=Sarabun;fontSource=https%3A%2F%2Ffonts.googleapis.com%2Fcss%3Ffamily%3DSarabun;labelBackgroundColor=none;fillColor=#FAF5F0;strokeColor=#220607;fontColor=#220607;strokeWidth=2;fontStyle=1" parent="1" vertex="1">
          <mxGeometry x="580" y="465" width="120" height="60" as="geometry" />
        </mxCell>
        <mxCell id="Of5N_P5urWTNgMw1r_7d-52" value="Reduced scores on disliked menu" style="text;html=1;align=center;verticalAlign=middle;resizable=0;points=[];autosize=1;strokeColor=none;fillColor=none;fontFamily=Sarabun;fontSource=https%3A%2F%2Ffonts.googleapis.com%2Fcss%3Ffamily%3DSarabun;" parent="1" vertex="1">
          <mxGeometry x="420" y="560" width="190" height="30" as="geometry" />
        </mxCell>
        <mxCell id="Of5N_P5urWTNgMw1r_7d-54" value="Remove menus that met restriction criteria" style="text;html=1;align=center;verticalAlign=middle;resizable=0;points=[];autosize=1;strokeColor=none;fillColor=none;fontFamily=Sarabun;fontSource=https%3A%2F%2Ffonts.googleapis.com%2Fcss%3Ffamily%3DSarabun;" parent="1" vertex="1">
          <mxGeometry x="430" y="600" width="250" height="30" as="geometry" />
        </mxCell>
        <mxCell id="Of5N_P5urWTNgMw1r_7d-55" style="edgeStyle=orthogonalEdgeStyle;rounded=0;orthogonalLoop=1;jettySize=auto;html=1;entryX=0;entryY=0.5;entryDx=0;entryDy=0;strokeWidth=2;" parent="1" edge="1">
          <mxGeometry relative="1" as="geometry">
            <mxPoint x="700" y="494.64" as="sourcePoint" />
            <mxPoint x="740" y="494.64" as="targetPoint" />
          </mxGeometry>
        </mxCell>
        <mxCell id="Of5N_P5urWTNgMw1r_7d-56" value="Ranked recommendations based on score" style="rounded=0;whiteSpace=wrap;html=1;fontFamily=Sarabun;fontSource=https%3A%2F%2Ffonts.googleapis.com%2Fcss%3Ffamily%3DSarabun;labelBackgroundColor=none;fillColor=#FAF5F0;strokeColor=#220607;fontColor=#220607;strokeWidth=2;fontStyle=1" parent="1" vertex="1">
          <mxGeometry x="740" y="465" width="120" height="60" as="geometry" />
        </mxCell>
      </root>
    </mxGraphModel>
  </diagram>
</mxfile>
